<?xml version="1.0" encoding="utf-8"?>
<!-- Generator: Adobe Illustrator 26.4.1, SVG Export Plug-In . SVG Version: 6.00 Build 0)  -->
<svg version="1.1" id="Layer_1" xmlns="http://www.w3.org/2000/svg" xmlns:xlink="http://www.w3.org/1999/xlink" x="0px" y="0px"
	 viewBox="0 0 38 33.3" style="enable-background:new 0 0 38 33.3;" xml:space="preserve">
<style type="text/css">
	.st0{fill:#141414;}
	.st1{fill:#BC0000;}
</style>
<path class="st0" d="M35.9,16.6L20.7,32.5c-0.9,1-2.5,1-3.4,0L2.1,16.6C-1.1,12.3-0.6,6,3.6,2.3c4-3.5,10.2-2.9,13.9,1L19,4.8
	l1.5-1.5c3.7-3.8,9.9-4.5,13.9-1C38.6,6,39.1,12.3,35.9,16.6z"/>
<path class="st1" d="M23.8,15.7l-3.7,7.4c-0.4,0.9-1.7,0.9-2.1,0l-4.2-9.4L11.5,19l-7.3,0l13.1,13.5c0.9,1,2.5,1,3.4,0L33.8,19
	l-8.3,0L23.8,15.7z"/>
<path class="st1" d="M34.4,2.3c-4-3.5-10.2-2.9-13.9,1L19,4.8l-1.5-1.5c-3.7-3.8-9.9-4.5-13.9-1c-4.3,3.7-4.7,10-1.5,14.3h7.8
	l2.7-6.4c0.4-1,1.8-1,2.2,0l4.3,9.6l3.6-7.3c0.4-0.9,1.7-0.9,2.1,0l2.1,4.1h9C39.1,12.3,38.6,6,34.4,2.3z"/>
</svg>
