<?xml version="1.0" encoding="utf-8"?>
<!-- Generator: Adobe Illustrator 26.4.1, SVG Export Plug-In . SVG Version: 6.00 Build 0)  -->
<svg version="1.1" id="Layer_1" xmlns="http://www.w3.org/2000/svg" xmlns:xlink="http://www.w3.org/1999/xlink" x="0px" y="0px"
	 viewBox="0 0 74 74" style="enable-background:new 0 0 74 74;" xml:space="preserve">
<style type="text/css">
	.st0{display:none;}
	.st1{display:inline;fill:#183153;}
	.st2{display:inline;fill:#FEFEFE;}
	.st3{fill:#FFFFFF;}
</style>
<g class="st0">
	<path class="st1" d="M30.8,32.6c0.8,0,1.7,0,2.5,0c0.3,0,0.4-0.1,0.4-0.4c0-0.7,0-1.5,0-2.2c0-1.1,0.7-1.8,1.8-1.8c1,0,2,0,2.9,0
		c0.8,0,1.5,0.3,2,1c0.8,1.1,1.6,2.1,2.4,3.2c0.1,0.2,0.3,0.3,0.5,0.3c0.8,0,1.6,0,2.4,0c0.7,0,1,0.3,1.1,1c0.1,0.6,0,1.3,0,1.9
		c0,0.3,0,0.4,0.3,0.5c0.5,0.1,0.7,0.5,0.7,1c0,0.5-0.3,0.8-0.7,1c-0.2,0.1-0.4,0-0.5-0.1c-2.3-2.6-6-2.7-8.4-0.1
		c-0.2,0.2-0.5,0.3-0.8,0.4c-1,0.1-1.7-0.1-2.5-0.9c-2.3-2.1-5.7-1.8-7.8,0.6c-0.2,0.2-0.4,0.3-0.7,0.1c-0.4-0.2-0.7-0.5-0.6-1
		c0-0.5,0.3-0.8,0.7-0.9c0.3-0.1,0.4-0.3,0.4-0.5c0-0.5,0-1.1,0-1.6c0-0.9,0.4-1.2,1.2-1.2C29.2,32.6,30,32.6,30.8,32.6z"/>
	<path class="st1" d="M33.7,44.9c-0.3-0.2-0.6-0.1-0.9,0.1c-0.1,0.1-0.2,0.1-0.3,0.3c-0.5,0.8-1.6,0.8-2.1,0c-0.2-0.3-0.6-0.5-1-0.4
		c-0.8,0.2-1.7-0.6-1.4-1.4c0.1-0.3-0.1-0.9-0.4-1c-0.5-0.2-0.5-0.6-0.5-1c0-0.4,0.1-0.8,0.5-1c0.3-0.2,0.5-0.7,0.4-1
		c-0.2-0.7,0.6-1.6,1.4-1.4c0.5,0.1,0.9-0.1,1.1-0.5c0.2-0.4,0.5-0.5,0.9-0.5c0.4,0,0.9,0,1.1,0.5c0.2,0.4,0.7,0.6,1.1,0.5
		c0.7-0.2,1.6,0.7,1.4,1.4c-0.1,0.5,0,0.9,0.5,1.1c0.6,0.4,0.6,1.6,0,2C35,42.6,34.9,43,35,43.5C35.1,44.1,34.5,44.9,33.7,44.9z"/>
	<path class="st1" d="M44.8,44.9c-0.2-0.1-0.5-0.1-0.8,0c-0.2,0.1-0.3,0.2-0.4,0.4c-0.4,0.7-1.6,0.7-2,0c-0.2-0.4-0.6-0.6-1.1-0.5
		c-0.8,0.2-1.6-0.7-1.4-1.5c0.1-0.3-0.1-0.9-0.4-1c-0.5-0.2-0.5-0.6-0.5-1c0-0.4,0.1-0.8,0.5-1c0.3-0.1,0.5-0.7,0.4-1
		c-0.2-0.8,0.6-1.6,1.4-1.5c0.5,0.1,0.8-0.1,1.1-0.5c0.4-0.6,1.6-0.6,2,0c0.2,0.4,0.7,0.6,1.1,0.5c0.7-0.2,1.6,0.6,1.4,1.4
		c-0.1,0.4,0.1,0.9,0.5,1.1c0.4,0.2,0.5,0.6,0.5,1c0,0.4-0.1,0.8-0.5,1c-0.3,0.1-0.5,0.7-0.4,1C46.1,44.1,45.5,44.9,44.8,44.9z"/>
	<path class="st2" d="M38,32.6c-0.6,0-1.2,0-1.7,0c-0.3,0-0.4-0.1-0.4-0.4c0-0.5,0-1,0-1.5c0-0.2,0.1-0.4,0.3-0.4c0.7,0,1.5,0,2.2,0
		c0.2,0,0.3,0,0.4,0.2c0.4,0.6,0.9,1.2,1.3,1.8c0.2,0.3,0.1,0.3-0.2,0.3C39.3,32.6,38.7,32.6,38,32.6z"/>
	<path class="st2" d="M31.5,39.7c0.9,0,1.7,0.8,1.7,1.7c0,0.9-0.8,1.7-1.7,1.7c-0.9,0-1.6-0.7-1.6-1.7
		C29.8,40.5,30.6,39.7,31.5,39.7z"/>
</g>
<path class="st3" d="M73.9,31.4c0-1.9-1.1-3.6-3-3.4c-2.9,0.3-3.6-1.4-4.2-3.5c-0.1-0.5-0.4-1-0.6-1.4c-0.7-1.1-0.7-1.9,0.4-2.8
	c0.9-0.7,1.6-1.7,1.5-3c0.1-0.8-0.2-1.6-0.8-2.2c-2.8-2.8-5.5-5.6-8.3-8.3c-1.3-1.2-3-1.5-4.2-0.2c-1.7,2.1-3.3,1.9-5.2,0.6
	c-0.4-0.2-0.8-0.4-1.3-0.5C46.5,6.5,46,5.5,46,3.8c0.1-2.3-1.1-3.7-3.4-3.7C38.8,0,35,0,31.2,0.1c-2,0.1-3.5,1.3-3.3,3
	c0.3,2.7-1.2,3.4-3.2,4c-0.4,0.1-0.9,0.3-1.2,0.6c-1.3,0.8-2.3,0.7-3.5-0.5c-1.8-1.8-3.4-1.9-5.1-0.3c-2.8,2.6-5.4,5.3-8.1,8
	c-1.2,1.3-1.7,3.1-0.3,4.3C8.7,21.2,8.1,23,7,25c-0.2,0.3-0.3,0.7-0.4,1.1c-0.3,1.5-1.1,1.9-2.6,1.8c-2.5-0.1-3.9,1.2-3.9,3.5
	C0,35.1,0,38.9,0.1,42.7c0,1.7,0.8,3.3,2.6,3.3c3.2-0.1,4.1,1.7,4.7,4.2c0.1,0.2,0.2,0.5,0.3,0.7C8.7,52.1,8.3,53,7.2,54
	c-1.7,1.6-1.9,3.4-0.4,5.1c2.6,2.8,5.4,5.5,8.2,8.2c1.3,1.2,3.2,1.5,4.4,0.2c1.7-2,3.2-1.7,5.1-0.6c0.4,0.3,0.9,0.5,1.4,0.6
	c1.6,0.3,2.1,1.2,2,2.8c-0.1,2.4,1.1,3.7,3.4,3.7c3.8,0.1,7.6,0,11.4,0c1.6,0,3.3-0.8,3.2-2.4c-0.3-3.3,1.7-4.3,4.2-4.9
	c0.2-0.1,0.5-0.2,0.7-0.3c1.2-0.9,2.1-0.7,3.1,0.4c1.6,1.9,3.6,2,5.4,0.3c2.7-2.5,5.2-5.1,7.8-7.8c1.2-1.3,1.7-3.2,0.4-4.4
	c-2.3-2-1.7-3.7-0.5-5.8c0.2-0.3,0.3-0.7,0.4-1.1c0.2-1.4,0.9-1.8,2.4-1.8c2.7,0,4.1-1.2,4.2-3.5C74,39,74,35.2,73.9,31.4z M37,58
	c-11.6,0-21-9.4-21-21c0-11.6,9.4-21,21-21s21,9.4,21,21C58,48.6,48.6,58,37,58z"/>
<g>
	<path class="st3" d="M25,28.3c0.1-0.9,0.9-1.6,1.7-1.6h20.5c1,0,1.8,0.8,1.7,1.8c-0.1,0.9-0.9,1.6-1.7,1.6H26.7
		C25.7,30.1,24.9,29.3,25,28.3z M25,37c0-0.9,0.8-1.7,1.7-1.7h20.5c0.9,0,1.7,0.7,1.7,1.6c0.1,1-0.7,1.8-1.7,1.8H26.7
		C25.8,38.7,25,37.9,25,37z M49,45.7c-0.1,0.9-0.9,1.6-1.7,1.6H26.7c-0.9,0-1.7-0.8-1.7-1.7c0-0.9,0.8-1.7,1.7-1.7h20.6
		C48.3,43.9,49.1,44.7,49,45.7z"/>
</g>
</svg>
