<?xml version="1.0" encoding="UTF-8"?>
<svg id="Layer_2" data-name="Layer 2" xmlns="http://www.w3.org/2000/svg" xmlns:xlink="http://www.w3.org/1999/xlink" viewBox="0 0 19.99 19.99">
  <defs>
    <style>
      .cls-1 {
        fill: #071523;
      }

      .cls-2 {
        fill: url(#linear-gradient);
      }

      .cls-3 {
        fill: #fefefe;
      }
    </style>
    <linearGradient id="linear-gradient" x1="9.99" y1="0" x2="9.99" y2="19.99" gradientUnits="userSpaceOnUse">
      <stop offset=".12" stop-color="#fc0"/>
      <stop offset=".18" stop-color="#ffb60b"/>
      <stop offset=".27" stop-color="#ff9c18"/>
      <stop offset=".33" stop-color="#ff931e"/>
      <stop offset=".43" stop-color="#ff6b0f"/>
      <stop offset=".52" stop-color="#ff5105"/>
      <stop offset=".58" stop-color="#ff4802"/>
      <stop offset="1" stop-color="red"/>
    </linearGradient>
  </defs>
  <g id="Layer_1-2" data-name="Layer 1">
    <g>
      <path class="cls-2" d="M18.37,4.67c.04,.36-.15,.62-.4,.82-.29,.23-.31,.46-.11,.75,.08,.11,.14,.24,.17,.38,.17,.57,.36,1.01,1.14,.94,.49-.04,.79,.41,.8,.92,.02,1.02,.03,2.05,0,3.07-.02,.63-.4,.95-1.14,.94-.39,0-.58,.12-.64,.49-.02,.1-.05,.2-.1,.29-.32,.55-.5,1.03,.13,1.56,.35,.3,.21,.83-.12,1.18-.68,.72-1.38,1.42-2.1,2.1-.48,.45-1.02,.42-1.46-.08-.28-.32-.51-.35-.83-.12-.06,.04-.12,.08-.19,.09-.69,.18-1.21,.43-1.14,1.33,.03,.44-.42,.65-.86,.65-1.02,.01-2.05,.02-3.07,0-.62-.01-.95-.36-.93-1.01,.02-.44-.11-.69-.55-.76-.13-.02-.27-.09-.38-.16-.5-.32-.91-.38-1.37,.15-.31,.36-.82,.29-1.18-.04-.76-.71-1.5-1.44-2.21-2.2-.41-.44-.36-.93,.11-1.37,.29-.27,.39-.51,.14-.84-.04-.05-.08-.12-.09-.19-.17-.67-.42-1.18-1.28-1.14-.48,.02-.7-.42-.71-.88-.02-1.02-.02-2.05,0-3.07,.01-.61,.4-.97,1.06-.94,.4,.01,.62-.09,.7-.49,.02-.1,.06-.2,.11-.29,.31-.54,.46-1.02-.12-1.54-.36-.33-.25-.82,.09-1.17,.71-.74,1.43-1.46,2.18-2.16,.46-.43,.88-.41,1.37,.08,.32,.32,.59,.36,.94,.13,.1-.06,.22-.12,.33-.15,.55-.15,.96-.35,.87-1.08-.06-.46,.36-.81,.89-.82,1.02-.03,2.05-.03,3.07,0,.63,.02,.96,.37,.93,1.01-.02,.47,.13,.71,.59,.79,.12,.02,.24,.06,.34,.13,.52,.34,.95,.39,1.42-.17,.3-.36,.78-.28,1.12,.04,.76,.73,1.51,1.48,2.25,2.24,.16,.16,.25,.38,.22,.61Z"/>
      <path class="cls-3" d="M4.98,9.95c.05-2.89,2.25-5,5.16-4.95,2.74,.05,4.89,2.29,4.85,5.06-.03,2.81-2.28,5.01-5.07,4.97-2.82-.04-5-2.28-4.95-5.08Z"/>
      <path class="cls-1" d="M10.01,8.12c-.49,.01-.93-.42-.93-.92,0-.51,.41-.93,.92-.92,.49,0,.88,.39,.9,.89,.02,.51-.39,.95-.88,.96Z"/>
      <path class="cls-1" d="M13.56,9.12c0,.52-.35,.92-.84,.94-.53,.02-.96-.41-.95-.94,0-.48,.41-.87,.91-.86,.52,0,.88,.35,.88,.87Z"/>
      <path class="cls-1" d="M9.24,12.23c.01,.52-.39,.96-.89,.96-.51,0-.94-.43-.94-.92,0-.47,.43-.9,.9-.9,.49,0,.92,.39,.93,.86Z"/>
      <path class="cls-1" d="M11.68,11.37c.47,.02,.89,.45,.88,.92,0,.49-.45,.91-.95,.9-.5-.01-.89-.45-.87-.97,.02-.47,.45-.86,.94-.85Z"/>
      <path class="cls-1" d="M7.33,8.24c.49,0,.9,.41,.9,.88,0,.5-.43,.92-.93,.93-.51,0-.88-.41-.87-.96,.01-.53,.36-.86,.9-.85Z"/>
    </g>
  </g>
</svg>