<?xml version="1.0" encoding="UTF-8"?>
<svg id="Layer_2" data-name="Layer 2" xmlns="http://www.w3.org/2000/svg" viewBox="0 0 21 21">
  <defs>
    <style>
      .cls-1 {
        fill: #fff;
      }
    </style>
  </defs>
  <g id="Layer_1-2" data-name="Layer 1">
    <g>
      <path class="cls-1" d="M20.98,8.91c-.01-.53-.33-1.02-.84-.97-.82,.07-1.02-.39-1.19-.98-.04-.14-.1-.28-.18-.4-.21-.31-.19-.55,.12-.79,.26-.2,.46-.47,.42-.86,.03-.24-.06-.46-.23-.64-.78-.79-1.56-1.58-2.36-2.35-.36-.34-.86-.43-1.18-.05-.49,.59-.94,.53-1.49,.17-.1-.07-.23-.11-.36-.13-.48-.08-.64-.34-.62-.83,.03-.66-.32-1.04-.98-1.06-1.07-.03-2.15-.03-3.23,0-.57,.02-1,.38-.94,.86,.09,.76-.33,.97-.91,1.13-.12,.03-.24,.09-.35,.16-.37,.24-.66,.2-.99-.14-.51-.51-.96-.53-1.44-.08-.78,.74-1.54,1.5-2.29,2.27-.35,.37-.47,.88-.09,1.23,.6,.55,.45,1.05,.12,1.62-.05,.09-.1,.2-.12,.31-.08,.42-.32,.53-.73,.51-.7-.03-1.1,.35-1.12,.99-.02,1.08-.02,2.15,0,3.23,0,.48,.24,.95,.74,.92,.9-.04,1.17,.49,1.34,1.2,.02,.07,.05,.14,.1,.19,.26,.35,.15,.6-.15,.88-.49,.46-.55,.98-.12,1.44,.74,.8,1.53,1.57,2.32,2.32,.37,.35,.91,.43,1.24,.04,.48-.56,.91-.5,1.44-.16,.12,.08,.26,.14,.4,.17,.46,.08,.6,.34,.58,.8-.03,.68,.33,1.04,.97,1.06,1.07,.02,2.15,.01,3.23,0,.46,0,.94-.23,.91-.68-.07-.94,.48-1.21,1.2-1.4,.07-.02,.14-.05,.19-.1,.33-.24,.58-.21,.87,.13,.46,.53,1.03,.56,1.53,.08,.76-.71,1.49-1.45,2.2-2.2,.35-.36,.5-.92,.12-1.24-.66-.56-.47-1.06-.14-1.64,.05-.09,.09-.2,.11-.31,.06-.39,.26-.52,.67-.52,.77,0,1.18-.33,1.19-.99,.03-1.07,.02-2.15,0-3.23Zm-10.54,6.63c-2.82-.04-5-2.28-4.95-5.08,.05-2.89,2.25-5,5.16-4.95,2.74,.05,4.89,2.29,4.85,5.06-.03,2.81-2.28,5.01-5.07,4.97Z"/>
      <path class="cls-1" d="M10.51,8.62c-.49,.01-.93-.42-.93-.92,0-.51,.41-.93,.92-.92,.49,0,.88,.39,.9,.89,.02,.51-.39,.95-.88,.96Z"/>
      <path class="cls-1" d="M14.06,9.62c0,.52-.35,.92-.84,.94-.53,.02-.96-.41-.95-.94,0-.48,.41-.87,.91-.86,.52,0,.88,.35,.88,.87Z"/>
      <path class="cls-1" d="M9.75,12.74c.01,.52-.39,.96-.89,.96-.51,0-.94-.43-.94-.92,0-.47,.43-.9,.9-.9,.49,0,.92,.39,.93,.86Z"/>
      <path class="cls-1" d="M12.18,11.87c.47,.02,.89,.45,.88,.92,0,.49-.45,.91-.95,.9-.5-.01-.89-.45-.87-.97,.02-.47,.45-.86,.94-.85Z"/>
      <path class="cls-1" d="M7.83,8.75c.49,0,.9,.41,.9,.88,0,.5-.43,.92-.93,.93-.51,0-.88-.41-.87-.96,.01-.53,.36-.86,.9-.85Z"/>
    </g>
  </g>
</svg>